<svg class="icon-play" xmlns="http://www.w3.org/2000/svg" xmlns:xlink="http://www.w3.org/1999/xlink" viewBox="0 0 18 18" width="18" height="18">
  <path d="M9 3.7485375000000003C7.111335 3.7485375000000003 5.46225 3.84462 4.2981675 3.939015C3.4891575 4.0046175 2.8620825 4.6226400000000005 2.79 5.424405C2.7045525 6.37485 2.625 7.6282499999999995 2.625 8.9985C2.625 10.368825000000001 2.7045525 11.622225 2.79 12.5726625C2.8620825 13.374412500000002 3.4891575 13.992450000000002 4.2981675 14.058074999999999C5.46225 14.152425000000001 7.111335 14.2485 9 14.2485C10.888874999999999 14.2485 12.538050000000002 14.152425000000001 13.702200000000001 14.058037500000001C14.511074999999998 13.9924125 15.138000000000002 13.3746 15.210075 12.573037500000002C15.295499999999999 11.622975 15.375 10.3698375 15.375 8.9985C15.375 7.627237500000001 15.295499999999999 6.3740775 15.210075 5.4240375C15.138000000000002 4.622475 14.511074999999998 4.00464 13.702200000000001 3.9390374999999995C12.538050000000002 3.844635 10.888874999999999 3.7485375000000003 9 3.7485375000000003zM4.2072375 2.8176975C5.39424 2.7214425 7.074434999999999 2.6235375000000003 9 2.6235375000000003C10.925775 2.6235375000000003 12.606075 2.7214575 13.793099999999999 2.81772C15.141074999999999 2.92704 16.208849999999998 3.9695849999999995 16.330575 5.323297500000001C16.418174999999998 6.297675 16.5 7.585537500000001 16.5 8.9985C16.5 10.4115375 16.418174999999998 11.6994 16.330575 12.6738C16.208849999999998 14.027474999999999 15.141074999999999 15.0700125 13.793099999999999 15.1793625C12.606075 15.275625 10.925775 15.3735 9 15.3735C7.074434999999999 15.3735 5.39424 15.275625 4.2072375 15.179400000000001C2.859045 15.070049999999998 1.7912325 14.027212500000001 1.6695225000000002 12.673425C1.5818849999999998 11.69865 1.5 10.4106 1.5 8.9985C1.5 7.586475 1.5818849999999998 6.2984025 1.6695225000000002 5.3236725C1.7912325 3.96984 2.859045 2.9270175000000003 4.2072375 2.8176975z" fill="currentColor"></path>
  <path d="M11.035350000000001 8.2265625C11.6307375 8.570325 11.6307375 9.42975 11.0353125 9.773475L8.652149999999999 11.149425C8.0567625 11.49315 7.3125 11.063475 7.3125075 10.37595L7.3125075 7.624124999999999C7.3125075 6.936607500000001 8.0567625 6.5069025 8.652149999999999 6.850664999999999L11.035350000000001 8.2265625z" fill="currentColor"></path>
</svg> 