<svg width="22" height="22" viewBox="0 0 36 36" fill="none" xmlns="http://www.w3.org/2000/svg">
  <path d="M18,0C8.1,0,0,8.1,0,18s8.1,18,18,18s18-8.1,18-18S27.9,0,18,0z M26.9,11.6c0,0.2-0.1,0.3-0.2,0.5
    c-0.1,0.1-0.3,0.2-0.4,0.2l-3.3,0.6v8.3c0,0.5,0.1,1,0.3,1.4l2.1,4c0.1,0.1,0.1,0.2,0.1,0.3c0,0.1,0,0.2-0.1,0.3
    c-0.1,0.1-0.1,0.2-0.3,0.2c-0.1,0.1-0.2,0.1-0.3,0.1H23c-0.1,0-0.3,0-0.4-0.1c-0.1-0.1-0.2-0.2-0.3-0.3l-2.1-3.9
    c-0.2-0.5-0.4-1-0.4-1.5v-8.4l-4.6,0.8v11.4c0,0.2,0,0.4-0.1,0.5c-0.1,0.2-0.2,0.3-0.4,0.4l-1.3,0.8c-0.1,0.1-0.3,0.1-0.4,0.1
    s-0.3,0-0.4-0.1c-0.1-0.1-0.2-0.2-0.3-0.3c-0.1-0.1-0.1-0.3-0.1-0.4v-12l-3.4,0.6c-0.1,0-0.2,0-0.4,0c-0.1,0-0.2-0.1-0.3-0.2
    C8.1,14.9,8,14.8,8,14.6c0-0.1-0.1-0.2,0-0.4l0.2-1.4c0-0.2,0.1-0.3,0.2-0.5c0.1-0.1,0.3-0.2,0.5-0.2l17.4-2.9c0.1,0,0.3,0,0.4,0
    c0.1,0,0.2,0.1,0.3,0.2C26.9,9.5,27,9.6,27,9.7c0,0.1,0.1,0.2,0,0.4L26.9,11.6z" fill="currentColor"></path>
</svg> 