<svg width="24" height="24" viewBox="0 0 1024 1024" fill="none" xmlns="http://www.w3.org/2000/svg">
  <path d="M851.4 590.193c-22.196-66.233-90.385-90.422-105.912-91.863-15.523-1.442-29.593-9.94-19.295-27.505 10.302-17.566 29.304-68.684-7.248-104.681-36.564-36.14-116.512-22.462-173.094 0.866-56.434 23.327-53.39 7.055-51.65-8.925 1.89-16.848 32.355-111.02-60.791-122.395C311.395 220.86 154.85 370.754 99.572 457.15 16 587.607 29.208 675.873 29.208 675.873h0.58c10.009 121.819 190.787 218.869 412.328 218.869 190.5 0 350.961-71.853 398.402-169.478 0 0 0.143-0.433 0.575-1.156 4.938-10.506 8.71-21.168 11.035-32.254 6.668-26.205 11.755-64.215-0.728-101.66z m-436.7 251.27c-157.71 0-285.674-84.095-285.674-187.768 0-103.671 127.82-187.76 285.674-187.76 157.705 0 285.673 84.089 285.673 187.76 0 103.815-127.968 187.768-285.673 187.768z" fill="currentColor"/>
  <path d="M803.096 425.327c2.896 1.298 5.945 1.869 8.994 1.869 8.993 0 17.7-5.328 21.323-14.112 5.95-13.964 8.993-28.793 8.993-44.205 0-62.488-51.208-113.321-114.181-113.321-15.379 0-30.32 3.022-44.396 8.926-11.755 4.896-17.263 18.432-12.335 30.24 4.933 11.662 18.572 17.134 30.465 12.238 8.419-3.46 17.268-5.33 26.41-5.33 37.431 0 67.752 30.241 67.752 67.247 0 9.068-1.735 17.857-5.369 26.202a22.832 22.832 0 0 0 12.335 30.236l0.01 0.01z m-162.421-1.869a22.764 22.764 0 0 0 21.067-14.112c3.477-8.141 5.224-16.8 5.224-25.972 0-37.006-30.32-67.247-67.756-67.247-9.145 0-18.003 1.87-26.276 5.325-11.755 4.897-17.259 18.432-12.33 30.073 4.934 11.662 18.427 17.139 30.17 12.243 3.018-1.442 6.309-2.022 9.65-2.022 14.77 0 26.883 12.095 26.883 26.896 0 3.456-0.706 6.765-2.017 9.79-4.928 11.809 0.444 25.343 12.334 30.236 2.896 1.298 5.805 1.869 8.994 1.869l0.057 0.01z m-141.958 85.364c-13.81 0-26.276 3.16-37.735 8.633-83.159 41.425-75.09 130.417-75.09 130.417s-0.015 0.149 0.147 0.433c2.16 61.914 63.832 111.455 139.486 111.455 75.782 0 137.592-49.684 139.477-111.455h0.295l0.144-0.433c0-0.146 8.064-89.009-75.09-130.277-11.313-5.341-23.92-8.493-37.307-8.633h-3.992l-0.287-0.14h-0.048z m26.136 203.076c-9.147 6.328-20.39 9.792-31.702 9.792-11.463 0-22.566-3.318-31.702-9.792-9.147-6.473-14.218-15.107-14.218-24.033 0-9.07 5.071-17.71 14.218-24.037 9.136-6.328 20.19-9.792 31.702-9.792 11.322 0 22.425 3.318 31.702 9.792 9.147 6.328 14.366 14.967 14.366 24.037 0 8.926-5.36 17.56-14.366 24.033z" fill="currentColor"/>
</svg> 