<?xml version="1.0" standalone="no"?><!DOCTYPE svg PUBLIC "-//W3C//DTD SVG 1.1//EN" "http://www.w3.org/Graphics/SVG/1.1/DTD/svg11.dtd"><svg t="1766513551506" class="icon" viewBox="0 0 1024 1024" version="1.1" xmlns="http://www.w3.org/2000/svg" p-id="10779" xmlns:xlink="http://www.w3.org/1999/xlink" width="200" height="200"><path d="M512 512m-480 0a480 480 0 1 0 960 0 480 480 0 1 0-960 0Z" fill="#0075D7" p-id="10780"></path><path d="M641.76 566.272a31.808 31.808 0 0 1 0-31.104l89.184-170.24c0.672-1.344 1.344-3.392 2.688-5.44H632.32c-1.344 0-3.36 2.048-4.032 3.392-4.064 8.8-8.128 17.6-12.832 26.368l-44.608 89.184c-1.344 2.016-2.688 4.736-4.064 6.752-0.64 0-0.64 0-1.344-0.672v-124.992h-97.952v380.384h97.952V611.52a8.992 8.992 0 0 1 3.392 4.064c22.272 40.544 44.576 80.384 66.208 120.96 2.016 4.032 4.032 5.376 8.768 5.376 5.44 0 10.144 0.672 15.552 0.672h73.632c-2.016-5.408-4.032-11.488-7.424-16.224a11938.528 11938.528 0 0 0-83.776-160.096z m226.336-43.936h-76.352c-11.488 0-22.976 0.672-32.416 7.424-14.208 9.472-17.6 24.32-17.6 39.872v172.288h83.808v-137.152h47.296v-81.76c-2.048 0-3.392-0.64-4.736-0.64z m-608.064-163.52h-12.16c-26.336 0.704-52.704 0.704-79.04 0.704v28.384h78.368v52.672h-78.4v29.056h78.4v53.376H170.176v27.712h90.56c11.456 0 15.52-4.064 15.52-16.224v-157.44c0-12.16-5.44-16.864-16.224-18.24z m154.72 92.576c-0.672-6.08-4.736-9.44-10.816-10.112-5.408-0.704-10.816-0.704-16.896-0.704H332.992V386.56h77.696c-0.64-9.44-1.344-18.24-2.016-26.336-0.672-0.672-1.344-0.672-2.016-0.672H320.832c-10.144 0-15.52 5.408-15.52 16.896 0 52-0.704 104.032-0.704 156.064 0 13.504 5.44 18.24 18.944 18.24h74.976c12.832 0 18.24-5.408 18.24-18.912v-68.928c-0.64-4.032-1.344-7.424-2.016-11.488z m-29.76 70.272H333.696v-51.36h51.36v51.36z" fill="#FFFFFF" p-id="10781"></path></svg>