<?xml version="1.0" standalone="no"?><!DOCTYPE svg PUBLIC "-//W3C//DTD SVG 1.1//EN" "http://www.w3.org/Graphics/SVG/1.1/DTD/svg11.dtd"><svg t="1766513584035" class="icon" viewBox="0 0 1024 1024" version="1.1" xmlns="http://www.w3.org/2000/svg" p-id="11791" xmlns:xlink="http://www.w3.org/1999/xlink" width="200" height="200"><path d="M319.146667 431.786667l-49.493334 10.24v-27.306667l49.493334-8.533333v25.6z" p-id="11792" fill="#d81e06"></path><path d="M955.733333 0H68.266667a68.266667 68.266667 0 0 0-68.266667 68.266667v887.466666a68.266667 68.266667 0 0 0 68.266667 68.266667h887.466666a68.266667 68.266667 0 0 0 68.266667-68.266667V68.266667a68.266667 68.266667 0 0 0-68.266667-68.266667zM691.2 244.053333l75.093333-8.533333v61.44h-23.893333l23.893333 39.253333h-27.306666L716.8 293.546667v42.666666h-30.72z m-81.92 68.266667h27.306667l5.12-40.96H631.466667v-22.186667h37.546666l-5.12 83.626667-54.613333 3.413333zM213.333333 786.773333l-66.56-17.066666a1970.688 1970.688 0 0 0 47.786667-332.8h-22.186667l-15.36-97.28 160.426667-18.773334v-114.346666l69.973333-5.12v32.426666l87.04-6.826666v54.613333l-87.04 6.826667v23.893333l162.133334-18.773333-5.12 136.533333-58.026667 11.946667v-68.266667l-98.986667 15.36v29.013333l69.973334-13.653333v66.56l-69.973334 18.773333v27.306667l75.093334-15.36 5.12 68.266667-150.186667 35.84v-97.28l-58.026667 13.653333a1479.168 1479.168 0 0 1-46.08 264.533333z m481.28-201.386666l10.24 64.853333-58.026666 32.426667-5.12 117.76H563.2l5.12-75.093334-157.013333 93.866667-8.533334-136.533333-58.026666 18.773333c1.365333 64.170667-7.338667 98.474667-11.946667 107.52l-63.146667-13.653333a660.650667 660.650667 0 0 0 10.24-151.893334l186.026667-47.786666 8.533333 87.04 105.813334-46.08 8.533333-92.16-95.573333 20.48v-68.266667l100.693333-23.893333 11.946667-121.173334h52.906666v105.813334l35.84-6.826667 10.24 63.146667-52.906666 13.653333v76.8z m138.24 58.026666l-40.96-40.96v184.32H716.8l18.773333-436.906666h56.32v165.546666l88.746667 87.04z m-92.16-380.586666h-30.72v13.653333h30.72z" p-id="11793" fill="#d81e06"></path><path d="M709.973333 262.826667h30.72v13.653333h-30.72z" p-id="11794" fill="#d81e06"></path><path d="M709.973333 262.826667h30.72v13.653333h-30.72z" p-id="11795" fill="#d81e06"></path><path d="M319.146667 406.186667v25.6l-49.493334 10.24v-27.306667l49.493334-8.533333z" p-id="11796" fill="#d81e06"></path><path d="M319.146667 406.186667v25.6l-49.493334 10.24v-27.306667l49.493334-8.533333z" p-id="11797" fill="#d81e06"></path></svg>