<svg t="1749610791024" class="icon" viewBox="0 0 1024 1024" version="1.1" xmlns="http://www.w3.org/2000/svg" p-id="2882" width="200" height="200">
    <path d="M464.738462 129.969231c240.246154 0 433.230769 192.984615 433.230769 433.230769s-192.984615 433.230769-433.230769 433.230769-433.230769-192.984615-433.23077-433.230769 196.923077-433.230769 433.23077-433.230769z" fill="#FFDA00" p-id="2883"></path><path d="M512 0C228.430769 0 0 228.430769 0 512s228.430769 512 512 512 512-228.430769 512-512S795.569231 0 512 0z m0 964.923077C263.876923 964.923077 59.076923 760.123077 59.076923 512S263.876923 59.076923 512 59.076923 964.923077 263.876923 964.923077 512 760.123077 964.923077 512 964.923077z" fill="#0E0F0F" p-id="2884"></path><path d="M787.692308 409.6l-173.292308-23.630769-74.830769-153.6c-11.815385-19.692308-43.323077-19.692308-51.2 0l-74.830769 153.6-177.23077 23.630769c-11.815385 0-19.692308 7.876923-23.630769 19.692308s0 23.630769 7.876923 31.507692l126.030769 122.092308-31.507692 169.353846c0 11.815385 3.938462 23.630769 11.815385 27.569231 3.938462 3.938462 11.815385 7.876923 19.692307 7.876923 3.938462 0 7.876923 0 11.815385-3.938462l153.6-78.769231 153.6 78.769231c11.815385 3.938462 23.630769 3.938462 31.507692-3.938461 7.876923-7.876923 11.815385-19.692308 11.815385-27.569231l-27.569231-169.353846 126.030769-122.092308c7.876923-7.876923 11.815385-19.692308 7.876923-31.507692-7.876923-7.876923-15.753846-15.753846-27.56923-19.692308zM626.215385 551.384615c-7.876923 7.876923-11.815385 15.753846-7.876923 27.569231l23.630769 126.030769-114.215385-59.076923c-3.938462-3.938462-7.876923-3.938462-11.815384-3.938461-3.938462 0-7.876923 0-11.815385 3.938461l-114.215385 59.076923 23.63077-126.030769c0-7.876923 0-19.692308-7.876924-27.569231L315.076923 460.8l126.030769-19.692308c7.876923 0 19.692308-7.876923 23.63077-15.753846L512 311.138462l55.138462 114.215384c3.938462 7.876923 11.815385 15.753846 23.630769 15.753846l126.030769 19.692308-90.584615 90.584615z" fill="#0E0F0F" p-id="2885"></path>
</svg>