<svg viewBox="0 0 1024 1024" width="14" height="14">
  <path d="M753.607 730.599c-61.465 0-111.608-49.687-111.608-111.166 0-61.45 50.144-111.15 111.608-111.15 61.473 0 111.608 49.7 111.608 111.15 0 61.48-50.135 111.166-111.608 111.166m-477.221-.008c-61.465 0-111.6-49.687-111.6-111.166 0-61.458 50.135-111.15 111.6-111.15 61.48 0 111.616 49.692 111.616 111.15 0 61.48-50.135 111.166-111.616 111.166m712.158-56.924c0-64.784-36.972-121.309-91.207-148.54 15.24-19.94 24.359-45.46 24.359-72.574 0-64.848-52.937-117.816-118.09-117.816-65.242 0-118.09 52.968-118.09 117.816 0 27.114 9.12 52.634 24.36 72.574-54.227 27.232-91.198 83.757-91.198 148.54 0 76.244 51.647 141.154 122.845 160.709-34.002 23.533-77.063 37.458-123.765 38.518h-242.01c-46.695-1.06-89.764-14.985-123.774-38.518 71.19-19.555 122.853-84.465 122.853-160.709 0-64.784-36.98-121.309-91.19-148.54 15.24-19.94 24.351-45.46 24.351-72.574 0-64.848-52.952-117.816-118.09-117.816-65.227 0-118.09 52.968-118.09 117.816 0 27.114 9.12 52.634 24.351 72.574C53.065 552.358 16.07 608.883 16.07 673.667c0 80.483 57.66 147.52 134.261 162.7-22.761 56.188-33.868 117.287-35.418 182.26h812.347c-1.565-64.981-12.664-126.08-35.418-182.26 76.601-15.172 134.261-82.217 134.261-162.7" fill="currentColor"/>
</svg> 